<mxfile host="app.diagrams.net" modified="2023-09-22T15:44:06.276Z" agent="Mozilla/5.0 (X11; Linux x86_64; rv:104.0) Gecko/20100101 Firefox/104.0" etag="2gOxNrWPllSRm3d1h-hz" version="21.8.0" type="github">
  <diagram id="R2lEEEUBdFMjLlhIrx00" name="Page-1">
    <mxGraphModel dx="654" dy="662" grid="1" gridSize="10" guides="1" tooltips="1" connect="1" arrows="1" fold="1" page="1" pageScale="1" pageWidth="850" pageHeight="1100" math="0" shadow="0" extFonts="Permanent Marker^https://fonts.googleapis.com/css?family=Permanent+Marker">
      <root>
        <mxCell id="0" />
        <mxCell id="1" parent="0" />
        <mxCell id="RUYYlVmlGUUOJcMJY9lp-8" value="" style="edgeStyle=orthogonalEdgeStyle;rounded=0;orthogonalLoop=1;jettySize=auto;html=1;" edge="1" parent="1" source="RUYYlVmlGUUOJcMJY9lp-2" target="RUYYlVmlGUUOJcMJY9lp-7">
          <mxGeometry relative="1" as="geometry" />
        </mxCell>
        <mxCell id="RUYYlVmlGUUOJcMJY9lp-19" value="" style="edgeStyle=orthogonalEdgeStyle;rounded=0;orthogonalLoop=1;jettySize=auto;html=1;exitX=0.393;exitY=0.967;exitDx=0;exitDy=0;exitPerimeter=0;" edge="1" parent="1" source="RUYYlVmlGUUOJcMJY9lp-6" target="RUYYlVmlGUUOJcMJY9lp-18">
          <mxGeometry relative="1" as="geometry" />
        </mxCell>
        <mxCell id="RUYYlVmlGUUOJcMJY9lp-2" value="vendedor" style="swimlane;fontStyle=0;childLayout=stackLayout;horizontal=1;startSize=30;horizontalStack=0;resizeParent=1;resizeParentMax=0;resizeLast=0;collapsible=1;marginBottom=0;whiteSpace=wrap;html=1;" vertex="1" parent="1">
          <mxGeometry x="80" y="100" width="140" height="150" as="geometry" />
        </mxCell>
        <mxCell id="RUYYlVmlGUUOJcMJY9lp-3" value="código do venddedor" style="text;strokeColor=none;fillColor=none;align=left;verticalAlign=middle;spacingLeft=4;spacingRight=4;overflow=hidden;points=[[0,0.5],[1,0.5]];portConstraint=eastwest;rotatable=0;whiteSpace=wrap;html=1;" vertex="1" parent="RUYYlVmlGUUOJcMJY9lp-2">
          <mxGeometry y="30" width="140" height="30" as="geometry" />
        </mxCell>
        <mxCell id="RUYYlVmlGUUOJcMJY9lp-4" value="nome" style="text;strokeColor=none;fillColor=none;align=left;verticalAlign=middle;spacingLeft=4;spacingRight=4;overflow=hidden;points=[[0,0.5],[1,0.5]];portConstraint=eastwest;rotatable=0;whiteSpace=wrap;html=1;" vertex="1" parent="RUYYlVmlGUUOJcMJY9lp-2">
          <mxGeometry y="60" width="140" height="30" as="geometry" />
        </mxCell>
        <mxCell id="RUYYlVmlGUUOJcMJY9lp-5" value="endereço" style="text;strokeColor=none;fillColor=none;align=left;verticalAlign=middle;spacingLeft=4;spacingRight=4;overflow=hidden;points=[[0,0.5],[1,0.5]];portConstraint=eastwest;rotatable=0;whiteSpace=wrap;html=1;" vertex="1" parent="RUYYlVmlGUUOJcMJY9lp-2">
          <mxGeometry y="90" width="140" height="30" as="geometry" />
        </mxCell>
        <mxCell id="RUYYlVmlGUUOJcMJY9lp-6" value="comissão" style="text;strokeColor=none;fillColor=none;align=left;verticalAlign=middle;spacingLeft=4;spacingRight=4;overflow=hidden;points=[[0,0.5],[1,0.5]];portConstraint=eastwest;rotatable=0;whiteSpace=wrap;html=1;" vertex="1" parent="RUYYlVmlGUUOJcMJY9lp-2">
          <mxGeometry y="120" width="140" height="30" as="geometry" />
        </mxCell>
        <mxCell id="RUYYlVmlGUUOJcMJY9lp-13" value="" style="edgeStyle=orthogonalEdgeStyle;rounded=0;orthogonalLoop=1;jettySize=auto;html=1;entryX=0;entryY=0.5;entryDx=0;entryDy=0;" edge="1" parent="1" source="RUYYlVmlGUUOJcMJY9lp-7" target="RUYYlVmlGUUOJcMJY9lp-11">
          <mxGeometry relative="1" as="geometry" />
        </mxCell>
        <mxCell id="RUYYlVmlGUUOJcMJY9lp-7" value="atende" style="rhombus;whiteSpace=wrap;html=1;fontStyle=0;startSize=30;" vertex="1" parent="1">
          <mxGeometry x="290" y="135" width="80" height="80" as="geometry" />
        </mxCell>
        <mxCell id="RUYYlVmlGUUOJcMJY9lp-9" value="cliente" style="swimlane;fontStyle=0;childLayout=stackLayout;horizontal=1;startSize=30;horizontalStack=0;resizeParent=1;resizeParentMax=0;resizeLast=0;collapsible=1;marginBottom=0;whiteSpace=wrap;html=1;" vertex="1" parent="1">
          <mxGeometry x="425" y="100" width="140" height="150" as="geometry" />
        </mxCell>
        <mxCell id="RUYYlVmlGUUOJcMJY9lp-10" value="código do cliente" style="text;strokeColor=none;fillColor=none;align=left;verticalAlign=middle;spacingLeft=4;spacingRight=4;overflow=hidden;points=[[0,0.5],[1,0.5]];portConstraint=eastwest;rotatable=0;whiteSpace=wrap;html=1;" vertex="1" parent="RUYYlVmlGUUOJcMJY9lp-9">
          <mxGeometry y="30" width="140" height="30" as="geometry" />
        </mxCell>
        <mxCell id="RUYYlVmlGUUOJcMJY9lp-11" value="nome" style="text;strokeColor=none;fillColor=none;align=left;verticalAlign=middle;spacingLeft=4;spacingRight=4;overflow=hidden;points=[[0,0.5],[1,0.5]];portConstraint=eastwest;rotatable=0;whiteSpace=wrap;html=1;" vertex="1" parent="RUYYlVmlGUUOJcMJY9lp-9">
          <mxGeometry y="60" width="140" height="30" as="geometry" />
        </mxCell>
        <mxCell id="RUYYlVmlGUUOJcMJY9lp-12" value="&lt;div&gt;quantidade de compra&lt;/div&gt;" style="text;strokeColor=none;fillColor=none;align=left;verticalAlign=middle;spacingLeft=4;spacingRight=4;overflow=hidden;points=[[0,0.5],[1,0.5]];portConstraint=eastwest;rotatable=0;whiteSpace=wrap;html=1;" vertex="1" parent="RUYYlVmlGUUOJcMJY9lp-9">
          <mxGeometry y="90" width="140" height="30" as="geometry" />
        </mxCell>
        <mxCell id="RUYYlVmlGUUOJcMJY9lp-14" value="nome do vendedor" style="text;strokeColor=none;fillColor=none;align=left;verticalAlign=middle;spacingLeft=4;spacingRight=4;overflow=hidden;points=[[0,0.5],[1,0.5]];portConstraint=eastwest;rotatable=0;whiteSpace=wrap;html=1;" vertex="1" parent="RUYYlVmlGUUOJcMJY9lp-9">
          <mxGeometry y="120" width="140" height="30" as="geometry" />
        </mxCell>
        <mxCell id="RUYYlVmlGUUOJcMJY9lp-15" value="1" style="text;html=1;align=center;verticalAlign=middle;resizable=0;points=[];autosize=1;strokeColor=none;fillColor=none;" vertex="1" parent="1">
          <mxGeometry x="235" y="148" width="30" height="30" as="geometry" />
        </mxCell>
        <mxCell id="RUYYlVmlGUUOJcMJY9lp-16" value="n" style="text;html=1;align=center;verticalAlign=middle;resizable=0;points=[];autosize=1;strokeColor=none;fillColor=none;" vertex="1" parent="1">
          <mxGeometry x="790" y="560" width="30" height="30" as="geometry" />
        </mxCell>
        <mxCell id="RUYYlVmlGUUOJcMJY9lp-43" value="" style="edgeStyle=orthogonalEdgeStyle;rounded=0;orthogonalLoop=1;jettySize=auto;html=1;entryX=1;entryY=0.5;entryDx=0;entryDy=0;exitX=0.367;exitY=0.967;exitDx=0;exitDy=0;exitPerimeter=0;" edge="1" parent="1" source="RUYYlVmlGUUOJcMJY9lp-17" target="RUYYlVmlGUUOJcMJY9lp-39">
          <mxGeometry relative="1" as="geometry" />
        </mxCell>
        <mxCell id="RUYYlVmlGUUOJcMJY9lp-17" value="n" style="text;html=1;align=center;verticalAlign=middle;resizable=0;points=[];autosize=1;strokeColor=none;fillColor=none;" vertex="1" parent="1">
          <mxGeometry x="385" y="148" width="30" height="30" as="geometry" />
        </mxCell>
        <mxCell id="RUYYlVmlGUUOJcMJY9lp-24" value="" style="edgeStyle=orthogonalEdgeStyle;rounded=0;orthogonalLoop=1;jettySize=auto;html=1;" edge="1" parent="1" source="RUYYlVmlGUUOJcMJY9lp-18">
          <mxGeometry relative="1" as="geometry">
            <mxPoint x="135" y="440" as="targetPoint" />
          </mxGeometry>
        </mxCell>
        <mxCell id="RUYYlVmlGUUOJcMJY9lp-18" value="vende" style="rhombus;whiteSpace=wrap;html=1;fontStyle=0;startSize=30;" vertex="1" parent="1">
          <mxGeometry x="95" y="300" width="80" height="80" as="geometry" />
        </mxCell>
        <mxCell id="RUYYlVmlGUUOJcMJY9lp-31" value="" style="edgeStyle=orthogonalEdgeStyle;rounded=0;orthogonalLoop=1;jettySize=auto;html=1;" edge="1" parent="1" source="RUYYlVmlGUUOJcMJY9lp-20" target="RUYYlVmlGUUOJcMJY9lp-30">
          <mxGeometry relative="1" as="geometry" />
        </mxCell>
        <mxCell id="RUYYlVmlGUUOJcMJY9lp-20" value="pedido" style="swimlane;fontStyle=0;childLayout=stackLayout;horizontal=1;startSize=30;horizontalStack=0;resizeParent=1;resizeParentMax=0;resizeLast=0;collapsible=1;marginBottom=0;whiteSpace=wrap;html=1;" vertex="1" parent="1">
          <mxGeometry x="80" y="445" width="140" height="210" as="geometry" />
        </mxCell>
        <mxCell id="RUYYlVmlGUUOJcMJY9lp-21" value="&lt;div&gt;número&lt;/div&gt;" style="text;strokeColor=none;fillColor=none;align=left;verticalAlign=middle;spacingLeft=4;spacingRight=4;overflow=hidden;points=[[0,0.5],[1,0.5]];portConstraint=eastwest;rotatable=0;whiteSpace=wrap;html=1;" vertex="1" parent="RUYYlVmlGUUOJcMJY9lp-20">
          <mxGeometry y="30" width="140" height="30" as="geometry" />
        </mxCell>
        <mxCell id="RUYYlVmlGUUOJcMJY9lp-22" value="data" style="text;strokeColor=none;fillColor=none;align=left;verticalAlign=middle;spacingLeft=4;spacingRight=4;overflow=hidden;points=[[0,0.5],[1,0.5]];portConstraint=eastwest;rotatable=0;whiteSpace=wrap;html=1;" vertex="1" parent="RUYYlVmlGUUOJcMJY9lp-20">
          <mxGeometry y="60" width="140" height="30" as="geometry" />
        </mxCell>
        <mxCell id="RUYYlVmlGUUOJcMJY9lp-23" value="nome" style="text;strokeColor=none;fillColor=none;align=left;verticalAlign=middle;spacingLeft=4;spacingRight=4;overflow=hidden;points=[[0,0.5],[1,0.5]];portConstraint=eastwest;rotatable=0;whiteSpace=wrap;html=1;" vertex="1" parent="RUYYlVmlGUUOJcMJY9lp-20">
          <mxGeometry y="90" width="140" height="30" as="geometry" />
        </mxCell>
        <mxCell id="RUYYlVmlGUUOJcMJY9lp-25" value="endereço" style="text;strokeColor=none;fillColor=none;align=left;verticalAlign=middle;spacingLeft=4;spacingRight=4;overflow=hidden;points=[[0,0.5],[1,0.5]];portConstraint=eastwest;rotatable=0;whiteSpace=wrap;html=1;" vertex="1" parent="RUYYlVmlGUUOJcMJY9lp-20">
          <mxGeometry y="120" width="140" height="30" as="geometry" />
        </mxCell>
        <mxCell id="RUYYlVmlGUUOJcMJY9lp-26" value="cliente" style="text;strokeColor=none;fillColor=none;align=left;verticalAlign=middle;spacingLeft=4;spacingRight=4;overflow=hidden;points=[[0,0.5],[1,0.5]];portConstraint=eastwest;rotatable=0;whiteSpace=wrap;html=1;" vertex="1" parent="RUYYlVmlGUUOJcMJY9lp-20">
          <mxGeometry y="150" width="140" height="30" as="geometry" />
        </mxCell>
        <mxCell id="RUYYlVmlGUUOJcMJY9lp-27" value="código do vendedor" style="text;strokeColor=none;fillColor=none;align=left;verticalAlign=middle;spacingLeft=4;spacingRight=4;overflow=hidden;points=[[0,0.5],[1,0.5]];portConstraint=eastwest;rotatable=0;whiteSpace=wrap;html=1;" vertex="1" parent="RUYYlVmlGUUOJcMJY9lp-20">
          <mxGeometry y="180" width="140" height="30" as="geometry" />
        </mxCell>
        <mxCell id="RUYYlVmlGUUOJcMJY9lp-28" value="1" style="text;html=1;align=center;verticalAlign=middle;resizable=0;points=[];autosize=1;strokeColor=none;fillColor=none;" vertex="1" parent="1">
          <mxGeometry x="145" y="248" width="30" height="30" as="geometry" />
        </mxCell>
        <mxCell id="RUYYlVmlGUUOJcMJY9lp-29" value="n" style="text;html=1;align=center;verticalAlign=middle;resizable=0;points=[];autosize=1;strokeColor=none;fillColor=none;" vertex="1" parent="1">
          <mxGeometry x="145" y="408" width="30" height="30" as="geometry" />
        </mxCell>
        <mxCell id="RUYYlVmlGUUOJcMJY9lp-38" value="" style="edgeStyle=orthogonalEdgeStyle;rounded=0;orthogonalLoop=1;jettySize=auto;html=1;entryX=0;entryY=0.5;entryDx=0;entryDy=0;" edge="1" parent="1" source="RUYYlVmlGUUOJcMJY9lp-30" target="RUYYlVmlGUUOJcMJY9lp-35">
          <mxGeometry relative="1" as="geometry" />
        </mxCell>
        <mxCell id="RUYYlVmlGUUOJcMJY9lp-30" value="tem" style="rhombus;whiteSpace=wrap;html=1;fontStyle=0;startSize=30;" vertex="1" parent="1">
          <mxGeometry x="290" y="510" width="80" height="80" as="geometry" />
        </mxCell>
        <mxCell id="RUYYlVmlGUUOJcMJY9lp-32" value="peça" style="swimlane;fontStyle=0;childLayout=stackLayout;horizontal=1;startSize=30;horizontalStack=0;resizeParent=1;resizeParentMax=0;resizeLast=0;collapsible=1;marginBottom=0;whiteSpace=wrap;html=1;" vertex="1" parent="1">
          <mxGeometry x="425" y="445" width="140" height="180" as="geometry" />
        </mxCell>
        <mxCell id="RUYYlVmlGUUOJcMJY9lp-33" value="código da peça" style="text;strokeColor=none;fillColor=none;align=left;verticalAlign=middle;spacingLeft=4;spacingRight=4;overflow=hidden;points=[[0,0.5],[1,0.5]];portConstraint=eastwest;rotatable=0;whiteSpace=wrap;html=1;" vertex="1" parent="RUYYlVmlGUUOJcMJY9lp-32">
          <mxGeometry y="30" width="140" height="30" as="geometry" />
        </mxCell>
        <mxCell id="RUYYlVmlGUUOJcMJY9lp-34" value="preço" style="text;strokeColor=none;fillColor=none;align=left;verticalAlign=middle;spacingLeft=4;spacingRight=4;overflow=hidden;points=[[0,0.5],[1,0.5]];portConstraint=eastwest;rotatable=0;whiteSpace=wrap;html=1;" vertex="1" parent="RUYYlVmlGUUOJcMJY9lp-32">
          <mxGeometry y="60" width="140" height="30" as="geometry" />
        </mxCell>
        <mxCell id="RUYYlVmlGUUOJcMJY9lp-35" value="descrição" style="text;strokeColor=none;fillColor=none;align=left;verticalAlign=middle;spacingLeft=4;spacingRight=4;overflow=hidden;points=[[0,0.5],[1,0.5]];portConstraint=eastwest;rotatable=0;whiteSpace=wrap;html=1;" vertex="1" parent="RUYYlVmlGUUOJcMJY9lp-32">
          <mxGeometry y="90" width="140" height="30" as="geometry" />
        </mxCell>
        <mxCell id="RUYYlVmlGUUOJcMJY9lp-36" value="quantidade" style="text;strokeColor=none;fillColor=none;align=left;verticalAlign=middle;spacingLeft=4;spacingRight=4;overflow=hidden;points=[[0,0.5],[1,0.5]];portConstraint=eastwest;rotatable=0;whiteSpace=wrap;html=1;" vertex="1" parent="RUYYlVmlGUUOJcMJY9lp-32">
          <mxGeometry y="120" width="140" height="30" as="geometry" />
        </mxCell>
        <mxCell id="RUYYlVmlGUUOJcMJY9lp-37" value="tipo da peça" style="text;strokeColor=none;fillColor=none;align=left;verticalAlign=middle;spacingLeft=4;spacingRight=4;overflow=hidden;points=[[0,0.5],[1,0.5]];portConstraint=eastwest;rotatable=0;whiteSpace=wrap;html=1;" vertex="1" parent="RUYYlVmlGUUOJcMJY9lp-32">
          <mxGeometry y="150" width="140" height="30" as="geometry" />
        </mxCell>
        <mxCell id="RUYYlVmlGUUOJcMJY9lp-40" value="" style="edgeStyle=orthogonalEdgeStyle;rounded=0;orthogonalLoop=1;jettySize=auto;html=1;" edge="1" parent="1" source="RUYYlVmlGUUOJcMJY9lp-39">
          <mxGeometry relative="1" as="geometry">
            <mxPoint x="260" y="550" as="targetPoint" />
          </mxGeometry>
        </mxCell>
        <mxCell id="RUYYlVmlGUUOJcMJY9lp-39" value="gera" style="rhombus;whiteSpace=wrap;html=1;" vertex="1" parent="1">
          <mxGeometry x="290" y="328" width="80" height="80" as="geometry" />
        </mxCell>
        <mxCell id="RUYYlVmlGUUOJcMJY9lp-41" value="n" style="text;html=1;align=center;verticalAlign=middle;resizable=0;points=[];autosize=1;strokeColor=none;fillColor=none;" vertex="1" parent="1">
          <mxGeometry x="225" y="528" width="30" height="30" as="geometry" />
        </mxCell>
        <mxCell id="RUYYlVmlGUUOJcMJY9lp-42" value="n" style="text;html=1;align=center;verticalAlign=middle;resizable=0;points=[];autosize=1;strokeColor=none;fillColor=none;" vertex="1" parent="1">
          <mxGeometry x="385" y="528" width="30" height="30" as="geometry" />
        </mxCell>
        <mxCell id="RUYYlVmlGUUOJcMJY9lp-44" value="1" style="text;html=1;align=center;verticalAlign=middle;resizable=0;points=[];autosize=1;strokeColor=none;fillColor=none;" vertex="1" parent="1">
          <mxGeometry x="365" y="338" width="30" height="30" as="geometry" />
        </mxCell>
      </root>
    </mxGraphModel>
  </diagram>
</mxfile>
